<?xml version="1.0" encoding="UTF-8" standalone="no"?>
<svg
   width="266.45"
   height="100.31"
   version="1.1"
   id="svg3"
   sodipodi:docname="Logo-Regulus-small.svg"
   inkscape:version="1.4 (86a8ad7, 2024-10-11)"
   xmlns:inkscape="http://www.inkscape.org/namespaces/inkscape"
   xmlns:sodipodi="http://sodipodi.sourceforge.net/DTD/sodipodi-0.dtd"
   xmlns="http://www.w3.org/2000/svg"
   xmlns:svg="http://www.w3.org/2000/svg">
  <defs
     id="defs3" />
  <sodipodi:namedview
     id="namedview3"
     pagecolor="#ffffff"
     bordercolor="#000000"
     borderopacity="0.25"
     inkscape:showpageshadow="2"
     inkscape:pageopacity="0.0"
     inkscape:pagecheckerboard="0"
     inkscape:deskcolor="#d1d1d1"
     inkscape:zoom="6.6541562"
     inkscape:cx="133.30015"
     inkscape:cy="50.119052"
     inkscape:window-width="1920"
     inkscape:window-height="991"
     inkscape:window-x="-9"
     inkscape:window-y="-9"
     inkscape:window-maximized="1"
     inkscape:current-layer="svg3" />
  <clipPath
     id="a"
     fill="none">
    <path
       shape-rendering="crispEdges"
       stroke="#000"
       d="M0 0h907.09v510.24H0Z"
       id="path1" />
  </clipPath>
  <g
     fill="#d80023"
     clip-path="url(#a)"
     transform="matrix(0.1,0,0,0.1,88.296,25.549035)"
     id="g3">
    <path
       d="m 468.7,290.91 c -101.72,-0.38 -105.5,-46.93 -105.5,-46.93 5.4,0.35 34.3,-2.24 34.58,-18.24 0.28,-16 -19.92,-16.34 -19.92,-16.34 l -32.83,-0.07 -19.05,63.52 c 0.9,12.52 10.14,19.67 10.14,19.67 l 13.75,-43.14 c 9.33,33.32 47.06,50.08 109.65,51.46 71.76,1.58 119.32,-23.26 119.32,-23.26 l 2.26,-8 c -29.48,12.63 -75.22,21.47 -112.4,21.33 m -114.66,-55.51 5.52,-18 h 16.42 c 0,0 8.38,-0.07 7.68,8.63 -0.67,8.31 -17.68,10.16 -29.62,9.37"
       id="path2" />
    <path
       d="m 415.11,254.85 c 0,0 6.84,-17.62 -8.79,-17.94 -15.63,-0.32 -21.11,13.33 -21.67,16.52 -0.53,3 -1.74,20.42 26.04,13.63 l 1.79,-6.42 c 0,0 -20.57,7.05 -18,-5.79 z m -9.73,-12.62 c 5.26,0.9 3.42,7.15 3.42,7.15 h -13.05 c 0,0 4.37,-8.05 9.63,-7.15 m 43.5,-4.58 c -18.27,-3.77 -25.32,9.98 -25.32,9.98 0,0 -7.4,12.8 0.76,17.9 6.5,4.08 14.71,-0.15 14.71,-0.15 -1.75,13.75 -20.7,7.71 -20.7,7.71 l -3.15,6.39 c 27.64,7.5 31.7,-11.58 31.7,-11.58 l 8.63,-30.31 -6.62,0.06 z m -8.3,20.68 c 0,0 -4.74,2.68 -8.27,1.57 -3.53,-1.11 -2.78,-4.84 -2.78,-4.84 0,0 2.42,-15.15 16.04,-12.2 l -5,15.47 z m 41.63,10.26 8.95,-30.95 h -9.03 l -7.04,22.74 c 0,0 -3.71,3.26 -8.1,1.63 -1.49,-0.55 -1.2,-1.93 -1.1,-2.26 l 6.45,-22.1 h -8.95 l -7.14,24.04 c 0,0 -2.65,6.18 6.65,7.1 3.25,0.33 5.53,-0.1 7.12,-0.55 l 3.19,-1.05 -0.31,1.4 h 9.3 z m 17.28,0 15.37,-52.46 h -9.26 l -15.52,52.46 z m 46.03,-8.23 c 0,0 13.75,4.33 14.27,-1.09 0.3,-3.05 -4.31,-4 -6,-4.78 -1.69,-0.78 -6.3,-2.69 -5.25,-8.58 1.05,-5.89 8.47,-10.94 23.1,-8 l -1.43,5.26 c 0,0 -11.98,-2.42 -12.2,3.1 -0.07,1.73 2.7,2.53 3.78,3.06 1.34,0.65 8.53,2.3 8,10.03 -0.53,7.73 -10.68,12.7 -26.25,8.23 z m -9.86,8.23 8.93,-30.95 h -9 l -7.05,22.74 c 0,0 -3.71,3.26 -8.1,1.63 -1.49,-0.55 -1.2,-1.93 -1.1,-2.26 l 6.45,-22.1 h -8.94 l -7.14,24.04 c 0,0 -2.66,6.18 6.64,7.1 3.25,0.33 5.53,-0.1 7.12,-0.55 l 3.2,-1.05 -0.32,1.4 h 9.3 z"
       id="path3" />
  </g>
</svg>
