<svg xmlns="http://www.w3.org/2000/svg" width="266.45" height="100.31"><clipPath id="a" fill="none"><path shape-rendering="crispEdges" stroke="#000" d="M0 0h907.09v510.24H0Z"/></clipPath><g fill="#d80023" clip-path="url(#a)" transform="translate(-319.89 -204.06)"><path d="M468.7 290.91c-101.72-.38-105.5-46.93-105.5-46.93 5.4.35 34.3-2.24 34.58-18.24.28-16-19.92-16.34-19.92-16.34l-32.83-.07-19.05 63.52c.9 12.52 10.14 19.67 10.14 19.67l13.75-43.14c9.33 33.32 47.06 50.08 109.65 51.46 71.76 1.58 119.32-23.26 119.32-23.26l2.26-8c-29.48 12.63-75.22 21.47-112.4 21.33M354.04 235.4l5.52-18h16.42s8.38-.07 7.68 8.63c-.67 8.31-17.68 10.16-29.62 9.37"/><path d="M415.11 254.85s6.84-17.62-8.79-17.94c-15.63-.32-21.11 13.33-21.67 16.52-.53 3-1.74 20.42 26.04 13.63l1.79-6.42s-20.57 7.05-18-5.79zm-9.73-12.62c5.26.9 3.42 7.15 3.42 7.15h-13.05s4.37-8.05 9.63-7.15m43.5-4.58c-18.27-3.77-25.32 9.98-25.32 9.98s-7.4 12.8.76 17.9c6.5 4.08 14.71-.15 14.71-.15-1.75 13.75-20.7 7.71-20.7 7.71l-3.15 6.39c27.64 7.5 31.7-11.58 31.7-11.58l8.63-30.31-6.62.06zm-8.3 20.68s-4.74 2.68-8.27 1.57c-3.53-1.11-2.78-4.84-2.78-4.84s2.42-15.15 16.04-12.2l-5 15.47zm41.63 10.26 8.95-30.95h-9.03l-7.04 22.74s-3.71 3.26-8.1 1.63c-1.49-.55-1.2-1.93-1.1-2.26l6.45-22.1h-8.95l-7.14 24.04s-2.65 6.18 6.65 7.1c3.25.33 5.53-.1 7.12-.55l3.19-1.05-.31 1.4h9.3zm17.28 0 15.37-52.46h-9.26l-15.52 52.46zm46.03-8.23s13.75 4.33 14.27-1.09c.3-3.05-4.31-4-6-4.78-1.69-.78-6.3-2.69-5.25-8.58 1.05-5.89 8.47-10.94 23.1-8l-1.43 5.26s-11.98-2.42-12.2 3.1c-.07 1.73 2.7 2.53 3.78 3.06 1.34.65 8.53 2.3 8 10.03-.53 7.73-10.68 12.7-26.25 8.23zm-9.86 8.23 8.93-30.95h-9l-7.05 22.74s-3.71 3.26-8.1 1.63c-1.49-.55-1.2-1.93-1.1-2.26l6.45-22.1h-8.94l-7.14 24.04s-2.66 6.18 6.64 7.1c3.25.33 5.53-.1 7.12-.55l3.2-1.05-.32 1.4h9.3z"/></g></svg>